<mxfile host="app.diagrams.net" agent="Mozilla/5.0 (X11; Linux x86_64) AppleWebKit/537.36 (KHTML, like Gecko) Chrome/133.0.0.0 Safari/537.36" version="26.0.16">
  <diagram name="Page-1" id="x-BNVN3OSNsevC6Qfrl9">
    <mxGraphModel dx="1834" dy="802" grid="1" gridSize="10" guides="1" tooltips="1" connect="1" arrows="1" fold="1" page="0" pageScale="1" pageWidth="827" pageHeight="1169" math="0" shadow="0">
      <root>
        <mxCell id="0" />
        <mxCell id="1" parent="0" />
        <mxCell id="wg7_ObE9FOS7hgl4LA-m-1" value="&lt;b&gt;Benutzer&lt;/b&gt;:&lt;div&gt;&lt;br&gt;&lt;/div&gt;&lt;div&gt;- Name : String&lt;/div&gt;&lt;div&gt;- mail : String&lt;/div&gt;&lt;div&gt;- password : String&lt;/div&gt;&lt;div&gt;- Konten : String&lt;/div&gt;&lt;div&gt;- konto_hizufügen ()&lt;/div&gt;&lt;div&gt;- konto_löschen ()&lt;/div&gt;&lt;div&gt;- gesamt_budget_anzeigen ()&lt;/div&gt;&lt;div&gt;&lt;br&gt;&lt;/div&gt;&lt;div&gt;&lt;br&gt;&lt;/div&gt;" style="rounded=0;whiteSpace=wrap;html=1;" vertex="1" parent="1">
          <mxGeometry x="-90" y="80" width="200" height="280" as="geometry" />
        </mxCell>
      </root>
    </mxGraphModel>
  </diagram>
</mxfile>
